<svg version="1.1" id="Layer_1" xmlns="http://www.w3.org/2000/svg" xmlns:xlink="http://www.w3.org/1999/xlink" x="0px" y="0px"
	 width="100%" viewBox="0 0 1080 1080" enable-background="new 0 0 1080 1080" xml:space="preserve">
<path fill="#8992B1" opacity="1.000000" stroke="none" 
	d="
M14.999758,526.000000 
	C15.330257,513.233032 14.931599,500.891510 16.177483,488.718231 
	C17.704466,473.798431 20.101379,458.918091 23.047718,444.206055 
	C26.493483,427.000183 30.242277,409.792053 35.140202,392.957458 
	C40.172508,375.661011 45.948257,358.480621 52.863064,341.858643 
	C60.680553,323.066772 69.128670,304.387787 79.134712,286.695953 
	C90.173912,267.177368 102.461159,248.224014 115.738861,230.151550 
	C129.118607,211.940201 144.154694,194.917053 158.921158,177.765976 
	C165.750534,169.833725 173.322922,162.450119 181.162964,155.499649 
	C194.061844,144.064285 206.949585,132.506882 220.763824,122.241417 
	C237.744003,109.623322 255.215637,97.523697 273.326019,86.612785 
	C288.955414,77.196571 305.710938,69.626434 322.088226,61.480640 
	C342.532349,51.312054 363.876465,43.260048 385.815826,37.140751 
	C406.450928,31.385233 427.340607,26.363211 448.351654,22.194525 
	C463.732788,19.142838 479.441620,17.064766 495.094299,16.221607 
	C517.484070,15.015543 539.956848,15.384596 562.392517,14.985937 
	C586.208069,14.562758 609.601013,17.946268 633.033813,21.802011 
	C663.373901,26.794312 692.874084,34.832916 721.720886,45.145027 
	C747.699280,54.431736 772.850098,65.811699 796.592041,79.976707 
	C812.694702,89.583916 828.806458,99.257439 844.236450,109.885216 
	C857.008667,118.682411 869.150391,128.499878 880.914062,138.628922 
	C894.448669,150.282791 907.857605,162.202255 920.220581,175.064209 
	C932.966614,188.324524 945.051636,202.350952 956.217712,216.965271 
	C969.384583,234.198288 982.168457,251.863800 993.463989,270.352509 
	C1008.831848,295.506927 1022.361328,321.787445 1031.934326,349.799316 
	C1039.187012,371.021301 1046.406860,392.312073 1052.190063,413.959961 
	C1056.634399,430.596680 1059.280396,447.767365 1061.861328,464.831421 
	C1063.920898,478.449493 1064.725098,492.260406 1065.985962,505.994934 
	C1066.467896,511.246033 1066.664917,516.523193 1067.001587,521.787781 
	C1067.327515,526.883789 1068.070679,531.990601 1067.924316,537.072327 
	C1067.457642,553.278992 1067.401123,569.549866 1065.796509,585.657410 
	C1064.017334,603.518066 1060.832031,621.245789 1058.036133,638.996216 
	C1053.590942,667.218445 1045.541992,694.518188 1035.904663,721.330078 
	C1031.286255,734.178833 1025.887695,746.778564 1020.253357,759.224426 
	C1008.334839,785.551575 994.594604,810.945862 977.947021,834.584473 
	C966.947693,850.203064 955.336426,865.452148 943.113525,880.129211 
	C932.018005,893.452454 920.378113,906.469482 907.791382,918.365845 
	C892.636169,932.689697 876.638733,946.210571 860.236267,959.099548 
	C846.280396,970.065918 831.452576,979.978577 816.589172,989.714172 
	C807.065186,995.952576 796.855164,1001.169373 786.815186,1006.589233 
	C758.081665,1022.100281 728.185059,1035.005371 696.775818,1043.906738 
	C675.059631,1050.061157 653.021912,1055.228638 630.911987,1059.791138 
	C617.491150,1062.560669 603.686340,1063.623413 590.003662,1064.922363 
	C578.510925,1066.013428 566.945435,1066.339233 555.411865,1066.999023 
	C549.479004,1067.338379 543.533203,1068.088501 537.614807,1067.915527 
	C523.745178,1067.510376 509.842285,1067.162598 496.036011,1065.889526 
	C465.112579,1063.038330 434.418945,1058.280640 404.532776,1049.793213 
	C384.224548,1044.025879 364.103638,1037.290771 344.473022,1029.535278 
	C326.316132,1022.362122 308.613678,1013.852417 291.266724,1004.859558 
	C266.156281,991.841980 242.226868,976.751465 220.356888,958.730896 
	C204.738586,945.861511 189.536835,932.465149 174.530853,918.882324 
	C165.478912,910.688843 156.438004,902.285706 148.663269,892.921448 
	C134.244278,875.554626 120.457733,857.637573 106.956215,839.540588 
	C89.615707,816.297852 75.783966,790.919800 63.448723,764.731812 
	C48.369278,732.717957 36.687325,699.457642 28.262157,665.113647 
	C24.577480,650.093567 21.640127,634.856140 19.146925,619.589478 
	C17.407736,608.939941 16.489283,598.090942 16.108200,587.299072 
	C15.392983,567.044983 15.332523,546.767639 14.999758,526.000000 
M336.653564,994.932007 
	C339.039154,995.941101 341.437469,996.921326 343.808380,997.963806 
	C367.279388,1008.284302 391.395264,1016.747131 416.267273,1023.000854 
	C438.140137,1028.500488 460.170135,1033.170288 482.703156,1035.044189 
	C498.599854,1036.366211 514.481262,1038.460327 530.398376,1038.782349 
	C546.413147,1039.106323 562.484436,1037.974976 578.491455,1036.895508 
	C590.586487,1036.079834 602.695923,1034.819214 614.661011,1032.897461 
	C631.064575,1030.262695 647.560303,1027.668823 663.605896,1023.483215 
	C680.857422,1018.982910 697.665405,1012.756042 714.610535,1007.113159 
	C740.423523,998.517334 764.719055,986.419983 788.078613,972.761536 
	C806.458801,962.014526 824.057251,949.775085 841.193604,937.103943 
	C855.812195,926.294434 869.917480,914.597412 883.076782,902.061584 
	C896.575745,889.202332 909.125610,875.251770 921.210571,861.030762 
	C932.412048,847.849487 942.922607,834.012512 952.890869,819.867737 
	C967.834839,798.662476 980.585083,776.078918 991.126099,752.368347 
	C998.858276,734.976135 1006.368469,717.432678 1012.841675,699.545532 
	C1022.789429,672.057068 1029.531860,643.668640 1032.973633,614.603149 
	C1035.290405,595.037659 1037.764282,575.440247 1038.767090,555.785645 
	C1039.585938,539.739990 1038.386475,523.587097 1037.961060,507.484894 
	C1037.826294,502.386536 1037.607178,497.255463 1036.896484,492.214111 
	C1035.093750,479.426025 1033.483398,466.579254 1030.892456,453.941254 
	C1026.973999,434.828308 1023.248535,415.587921 1017.711731,396.914459 
	C1008.589966,366.149963 996.700806,336.369110 981.111145,308.197357 
	C976.683289,300.195831 972.675293,291.906464 967.618469,284.319885 
	C956.397888,267.486084 945.063660,250.693283 932.954651,234.497665 
	C923.630676,222.026917 913.424377,210.154663 902.917419,198.649139 
	C894.653076,189.599319 885.607727,181.201996 876.410278,173.079895 
	C864.086426,162.196976 851.770630,151.197662 838.575073,141.432495 
	C814.983643,123.973999 790.274414,108.229095 763.820801,95.235931 
	C737.998596,82.552856 711.546570,71.724098 683.990112,63.399792 
	C654.535217,54.501995 624.501709,48.537571 594.003662,45.178265 
	C576.473572,43.247372 558.767395,42.520813 541.122253,42.169956 
	C529.437622,41.937626 517.711365,43.201839 506.020782,44.035267 
	C494.215729,44.876850 482.350861,45.458904 470.659058,47.162548 
	C456.323822,49.251377 442.010681,51.836624 427.917999,55.177425 
	C392.520294,63.568752 358.232910,75.438942 325.511993,91.327370 
	C298.796967,104.299477 273.025879,119.135201 249.414886,137.259766 
	C232.516754,150.231339 216.123672,163.891144 199.945053,177.757019 
	C191.811508,184.727905 184.326477,192.543259 177.140320,200.510773 
	C166.895020,211.870117 156.680237,223.326263 147.379822,235.452347 
	C133.196503,253.944855 120.127136,273.218445 108.595436,293.563385 
	C94.325455,318.739288 81.742409,344.654083 72.014252,371.891083 
	C59.878822,405.867920 50.513927,440.544281 46.953377,476.601227 
	C45.777912,488.504852 43.738846,500.352570 43.155910,512.277710 
	C42.487797,525.945190 42.744270,539.676697 43.078270,553.368652 
	C43.355865,564.748474 43.900314,576.156494 45.097733,587.470398 
	C46.663383,602.263672 48.726273,617.018005 51.048882,631.714172 
	C54.457760,653.283752 59.646923,674.483887 67.157326,694.981262 
	C74.313576,714.512085 81.389870,734.174072 90.238121,752.960327 
	C105.300484,784.940125 123.206741,815.396912 145.578888,842.935486 
	C158.526062,858.872681 171.607239,874.762817 185.599121,889.768799 
	C195.603455,900.498291 206.861771,910.159546 218.210312,919.508728 
	C231.960495,930.836426 246.056519,941.813416 260.610748,952.080505 
	C284.262939,968.765808 309.506592,982.795044 336.653564,994.932007 
z"/>
<path fill="#8992B1" opacity="1.000000" stroke="none" 
	d="
M894.996826,285.004333 
	C904.524658,300.210846 914.471252,314.774048 923.328247,329.972260 
	C938.290161,355.646332 949.621643,383.033356 957.987793,411.497406 
	C963.157898,429.087921 967.402954,447.023956 970.776123,465.045807 
	C973.513977,479.673340 975.021729,494.622192 975.833313,509.496307 
	C976.873291,528.555725 977.818359,547.751892 976.679260,566.761841 
	C975.518799,586.128662 972.021301,605.377563 969.106384,624.611328 
	C965.806030,646.388489 959.436157,667.407166 952.010376,688.089355 
	C943.015869,713.140442 932.298523,737.441711 918.318787,760.142883 
	C909.528198,774.417664 900.475891,788.567627 890.792419,802.243530 
	C884.351013,811.340637 876.889954,819.778381 869.343201,828.014587 
	C859.359558,838.910400 849.400208,849.938232 838.423279,859.786804 
	C824.029785,872.700745 808.986755,884.955078 793.619080,896.703003 
	C772.806458,912.613403 749.951294,925.292664 726.214478,936.309387 
	C698.273315,949.277222 669.511169,959.988281 639.202942,965.990479 
	C622.581116,969.282166 605.943176,972.869751 589.136292,974.742554 
	C572.900635,976.551697 556.443481,976.655518 540.074707,976.896667 
	C527.321472,977.084534 514.482239,977.062988 501.811920,975.811768 
	C486.544800,974.304016 471.384583,971.584045 456.234558,969.050842 
	C435.641174,965.607483 415.562286,960.071899 395.925812,953.015320 
	C366.998840,942.619995 338.844543,930.459106 313.107788,913.474854 
	C296.091248,902.245361 278.777954,891.189026 263.183014,878.157837 
	C246.854080,864.513367 232.317078,848.704468 217.188232,833.649292 
	C201.890549,818.426270 189.060181,801.144592 177.096725,783.288147 
	C153.483017,748.042969 135.093536,710.180115 123.144463,669.436646 
	C117.937103,651.680847 113.594444,633.590759 110.236465,615.398254 
	C107.443504,600.266846 106.079788,584.798828 105.152107,569.415466 
	C104.133011,552.516418 103.171173,535.464844 104.309219,518.623291 
	C105.676208,498.393646 109.075737,478.285248 111.979469,458.179871 
	C115.273216,435.373932 121.411217,413.167542 129.913712,391.864410 
	C138.293137,370.869629 147.658768,350.143372 158.310898,330.218414 
	C167.645081,312.758728 178.738480,296.128967 190.233566,279.971191 
	C198.962723,267.701355 209.473328,256.688354 219.332886,245.238068 
	C223.648911,240.225708 228.095215,235.284866 232.866302,230.712158 
	C251.729584,212.633301 271.387695,195.552444 293.118042,180.861710 
	C311.944977,168.133743 331.301941,156.443054 351.796783,146.637512 
	C377.555511,134.313553 404.211060,124.317032 431.847260,117.215614 
	C446.495239,113.451653 461.414917,110.546837 476.360779,108.203766 
	C488.023987,106.375313 499.899445,105.628082 511.711975,105.091522 
	C527.456177,104.376366 543.249634,103.710098 558.986755,104.185654 
	C572.739441,104.601234 586.523132,106.082024 600.148682,108.078003 
	C616.904724,110.532547 633.803284,112.927414 650.105225,117.329361 
	C668.912659,122.407883 687.375671,129.031403 705.558716,136.090424 
	C733.820923,147.062378 760.520691,161.279175 785.286011,178.815033 
	C798.493530,188.167068 811.440186,197.988495 823.739502,208.493835 
	C836.204163,219.140335 848.361633,230.301712 859.491455,242.314346 
	C871.982056,255.795761 883.170593,270.483612 894.996826,285.004333 
M905.449524,355.051422 
	C901.341492,347.613068 897.468994,340.032837 893.088867,332.758331 
	C848.647522,258.950470 787.256775,204.053299 708.978943,168.047409 
	C661.598633,146.253632 611.667908,134.893723 559.741577,132.308121 
	C530.054016,130.829865 500.520355,132.941635 471.156403,137.925095 
	C419.898285,146.624298 372.254791,164.879578 327.990356,191.870071 
	C290.735901,214.586197 257.891235,242.657120 229.628784,275.965302 
	C193.486526,318.560059 166.552277,366.344238 150.173477,419.789032 
	C135.494308,467.687897 129.518158,516.723145 132.849243,566.835999 
	C135.214996,602.426331 141.699158,637.164551 153.068985,670.989929 
	C176.380234,740.341064 215.922150,799.008362 270.349731,847.576660 
	C309.052734,882.113098 353.063293,908.174072 401.872253,925.833130 
	C463.266907,948.045654 526.455933,954.788147 591.262207,947.033264 
	C636.022705,941.677185 678.701477,929.197021 719.118469,909.349182 
	C769.215759,884.747559 812.715820,851.539612 849.503662,809.344482 
	C882.662903,771.311401 908.048645,728.755981 925.344910,681.554382 
	C947.906982,619.982422 955.003357,556.432373 947.099243,491.240814 
	C941.323730,443.605408 927.388550,398.500458 905.449524,355.051422 
z"/>
<path fill="#454A74" opacity="1.000000" stroke="none" 
	d="
M905.623474,355.379028 
	C927.388550,398.500458 941.323730,443.605408 947.099243,491.240814 
	C955.003357,556.432373 947.906982,619.982422 925.344910,681.554382 
	C908.048645,728.755981 882.662903,771.311401 849.503662,809.344482 
	C812.715820,851.539612 769.215759,884.747559 719.118469,909.349182 
	C678.701477,929.197021 636.022705,941.677185 591.262207,947.033264 
	C526.455933,954.788147 463.266907,948.045654 401.872253,925.833130 
	C353.063293,908.174072 309.052734,882.113098 270.349731,847.576660 
	C215.922150,799.008362 176.380234,740.341064 153.068985,670.989929 
	C141.699158,637.164551 135.214996,602.426331 132.849243,566.835999 
	C129.518158,516.723145 135.494308,467.687897 150.173477,419.789032 
	C166.552277,366.344238 193.486526,318.560059 229.628784,275.965302 
	C257.891235,242.657120 290.735901,214.586197 327.990356,191.870071 
	C372.254791,164.879578 419.898285,146.624298 471.156403,137.925095 
	C500.520355,132.941635 530.054016,130.829865 559.741577,132.308121 
	C611.667908,134.893723 661.598633,146.253632 708.978943,168.047409 
	C787.256775,204.053299 848.647522,258.950470 893.088867,332.758331 
	C897.468994,340.032837 901.341492,347.613068 905.623474,355.379028 
M737.862793,445.607758 
	C714.167542,432.022247 690.506592,418.375977 666.734436,404.926392 
	C663.693176,403.205780 662.676514,401.286346 662.707581,397.869446 
	C662.871155,379.874939 662.784302,361.878113 662.783691,343.882111 
	C662.783264,329.385345 662.838318,314.888214 662.753845,300.391937 
	C662.718445,294.312714 661.437195,288.849915 655.080994,285.937439 
	C622.080688,270.816376 589.085754,255.683014 556.166931,240.385971 
	C549.942444,237.493530 544.240051,237.471329 538.005066,240.378601 
	C506.614563,255.015503 475.234802,269.685883 443.603455,283.788727 
	C435.156433,287.554840 431.932190,292.980927 431.995148,301.877228 
	C432.221588,333.868500 432.030884,365.862610 432.160187,397.854980 
	C432.173981,401.274475 431.158051,403.187836 428.145081,404.913727 
	C405.310028,417.994446 382.668732,431.415039 359.777954,444.396149 
	C352.779083,448.365143 349.516754,453.464264 349.669403,461.665009 
	C350.035217,481.320496 349.787323,500.987427 349.787140,520.649719 
	C349.787140,522.396301 349.787140,524.142944 349.787140,524.609375 
	C343.863434,526.566528 338.870026,527.716431 334.306061,529.804871 
	C303.417419,543.939392 272.718658,558.493225 241.724213,572.388855 
	C233.770020,575.954956 230.800568,581.196350 230.936722,589.427002 
	C231.159912,602.920349 230.996979,616.420044 230.997025,629.917053 
	C230.997147,659.577148 231.028259,689.237244 230.973602,718.897217 
	C230.961472,725.471741 233.156174,730.515564 239.437836,733.404480 
	C272.570282,748.642151 305.694214,763.898499 338.782013,779.232727 
	C344.000092,781.650940 348.937958,781.653503 354.140472,779.224854 
	C366.815125,773.307800 379.633179,767.694946 392.250244,761.660034 
	C395.520264,760.095947 397.876801,760.363525 400.929535,762.125244 
	C446.227020,788.265259 491.661621,814.168335 536.889771,840.427185 
	C544.565918,844.883850 551.062256,844.932983 558.721375,840.411499 
	C601.751587,815.008911 644.989075,789.957520 688.088745,764.671936 
	C690.855896,763.048462 692.993958,762.796509 695.882690,764.254211 
	C702.569153,767.628296 709.432434,770.653259 716.236450,773.792847 
	C737.719238,783.705688 733.334412,783.735840 754.693298,773.901245 
	C783.584473,760.598511 812.440552,747.219482 841.352478,733.962036 
	C847.164185,731.297119 850.987732,727.306580 850.996582,720.693665 
	C851.056519,676.037170 851.084778,631.380432 850.972778,586.724121 
	C850.957520,580.638977 848.111755,576.177185 842.157776,573.485291 
	C810.750549,559.285156 779.459900,544.827209 748.066895,530.595276 
	C744.925415,529.171021 743.665283,527.544312 743.697510,523.946411 
	C743.888855,502.619537 743.749634,481.289917 743.820374,459.961548 
	C743.838318,454.553986 742.735718,449.713959 737.862793,445.607758 
z"/>
<path fill="#FEFEFE" opacity="1.000000" stroke="none" 
	d="
M738.160156,445.816711 
	C742.735718,449.713959 743.838318,454.553986 743.820374,459.961548 
	C743.749634,481.289917 743.888855,502.619537 743.697510,523.946411 
	C743.665283,527.544312 744.925415,529.171021 748.066895,530.595276 
	C779.459900,544.827209 810.750549,559.285156 842.157776,573.485291 
	C848.111755,576.177185 850.957520,580.638977 850.972778,586.724121 
	C851.084778,631.380432 851.056519,676.037170 850.996582,720.693665 
	C850.987732,727.306580 847.164185,731.297119 841.352478,733.962036 
	C812.440552,747.219482 783.584473,760.598511 754.693298,773.901245 
	C733.334412,783.735840 737.719238,783.705688 716.236450,773.792847 
	C709.432434,770.653259 702.569153,767.628296 695.882690,764.254211 
	C692.993958,762.796509 690.855896,763.048462 688.088745,764.671936 
	C644.989075,789.957520 601.751587,815.008911 558.721375,840.411499 
	C551.062256,844.932983 544.565918,844.883850 536.889771,840.427185 
	C491.661621,814.168335 446.227020,788.265259 400.929535,762.125244 
	C397.876801,760.363525 395.520264,760.095947 392.250244,761.660034 
	C379.633179,767.694946 366.815125,773.307800 354.140472,779.224854 
	C348.937958,781.653503 344.000092,781.650940 338.782013,779.232727 
	C305.694214,763.898499 272.570282,748.642151 239.437836,733.404480 
	C233.156174,730.515564 230.961472,725.471741 230.973602,718.897217 
	C231.028259,689.237244 230.997147,659.577148 230.997025,629.917053 
	C230.996979,616.420044 231.159912,602.920349 230.936722,589.427002 
	C230.800568,581.196350 233.770020,575.954956 241.724213,572.388855 
	C272.718658,558.493225 303.417419,543.939392 334.306061,529.804871 
	C338.870026,527.716431 343.863434,526.566528 349.787140,524.609375 
	C349.787140,524.142944 349.787140,522.396301 349.787140,520.649719 
	C349.787323,500.987427 350.035217,481.320496 349.669403,461.665009 
	C349.516754,453.464264 352.779083,448.365143 359.777954,444.396149 
	C382.668732,431.415039 405.310028,417.994446 428.145081,404.913727 
	C431.158051,403.187836 432.173981,401.274475 432.160187,397.854980 
	C432.030884,365.862610 432.221588,333.868500 431.995148,301.877228 
	C431.932190,292.980927 435.156433,287.554840 443.603455,283.788727 
	C475.234802,269.685883 506.614563,255.015503 538.005066,240.378601 
	C544.240051,237.471329 549.942444,237.493530 556.166931,240.385971 
	C589.085754,255.683014 622.080688,270.816376 655.080994,285.937439 
	C661.437195,288.849915 662.718445,294.312714 662.753845,300.391937 
	C662.838318,314.888214 662.783264,329.385345 662.783691,343.882111 
	C662.784302,361.878113 662.871155,379.874939 662.707581,397.869446 
	C662.676514,401.286346 663.693176,403.205780 666.734436,404.926392 
	C690.506592,418.375977 714.167542,432.022247 738.160156,445.816711 
M715.041565,530.984802 
	C715.042419,510.318481 715.089661,489.651855 714.958557,468.986389 
	C714.947754,467.276764 714.229736,464.723389 712.996033,463.997925 
	C696.351929,454.210785 679.558044,444.678528 664.285583,435.933136 
	C659.485229,439.914154 655.895752,444.318115 651.260254,446.505127 
	C619.628174,461.429352 587.737122,475.803833 556.028992,490.568909 
	C549.922424,493.412445 544.492920,493.319519 538.400696,490.483063 
	C507.598419,476.141815 476.682800,462.043671 445.779114,447.921112 
	C439.973114,445.267853 434.008148,442.929199 432.391968,435.412415 
	C430.299286,436.504944 428.831329,437.200958 427.430817,438.013275 
	C412.443481,446.706390 397.508606,455.491364 382.451508,464.061676 
	C379.485626,465.749817 378.315063,467.636932 378.342773,471.121674 
	C378.511322,492.286774 378.527618,513.454773 378.334106,534.619446 
	C378.299530,538.400269 379.619904,540.182678 382.959564,541.686890 
	C405.282288,551.740967 427.384521,562.295776 449.842468,572.032715 
	C458.307709,575.702942 461.511444,581.105042 461.459564,590.087769 
	C461.215088,632.419250 461.224426,674.753540 461.452759,717.085205 
	C461.500427,725.927490 458.195099,731.542175 449.954742,734.823242 
	C442.762054,737.687073 435.851715,741.260193 428.133423,744.836548 
	C429.821625,745.988037 430.692505,746.672791 431.643555,747.217651 
	C469.224640,768.751221 506.831543,790.239868 544.362427,811.860535 
	C547.111938,813.444458 549.053955,813.108337 551.604248,811.619385 
	C586.563782,791.207275 621.580261,770.892700 656.571655,750.535217 
	C657.742188,749.854126 658.796753,748.973816 660.449097,747.800293 
	C650.180359,743.063904 640.794006,738.383850 631.125061,734.387451 
	C623.580627,731.269104 620.550354,726.045715 620.648376,718.107910 
	C620.847900,701.943848 620.705078,685.775696 620.704956,669.609192 
	C620.704773,642.776123 620.828613,615.942200 620.632202,589.110596 
	C620.573059,581.026794 623.365295,575.967468 631.171326,572.491760 
	C657.947144,560.569580 684.438232,548.006714 710.985901,535.576965 
	C712.566895,534.836731 713.692505,533.123840 715.041565,530.984802 
M788.657959,727.119934 
	C798.497009,722.608398 808.278748,717.964722 818.207031,713.658936 
	C821.555481,712.206787 822.880005,710.434692 822.858826,706.626587 
	C822.687988,675.965881 822.767700,645.303711 822.751160,614.642029 
	C822.750305,613.072693 822.570190,611.503479 822.438354,609.362854 
	C820.338257,610.223572 818.817871,610.783936 817.349670,611.457947 
	C796.311707,621.116333 775.323975,630.886108 754.205383,640.364502 
	C750.718323,641.929626 749.783875,643.832947 749.801697,647.479370 
	C749.951294,678.140320 749.882568,708.802368 749.900146,739.464050 
	C749.901001,741.024536 750.091431,742.584900 750.234680,744.773132 
	C763.232483,738.811523 775.607910,733.135376 788.657959,727.119934 
M395.654510,626.113831 
	C385.221283,630.916382 374.837646,635.831848 364.324432,640.452393 
	C361.181183,641.833862 359.902435,643.454834 359.922241,647.082214 
	C360.090637,677.894165 360.014404,708.707458 360.031403,739.520325 
	C360.032257,741.068909 360.215942,742.617371 360.336639,744.513855 
	C361.679810,744.060364 362.475342,743.868958 363.205048,743.534180 
	C385.444489,733.333191 407.650146,723.057678 429.946625,712.983154 
	C432.662048,711.756226 433.016235,710.094727 433.011963,707.574646 
	C432.958252,675.929077 432.978302,644.283386 432.965546,612.637695 
	C432.965179,611.725647 432.811371,610.813538 432.663574,609.174866 
	C420.158600,614.907898 408.254791,620.365295 395.654510,626.113831 
M626.137878,324.524414 
	C605.905151,333.879852 585.709229,343.316772 565.402283,352.508270 
	C562.127625,353.990417 561.163513,355.829803 561.178162,359.293976 
	C561.307190,389.919952 561.248108,420.546753 561.264771,451.173279 
	C561.265625,452.736481 561.450867,454.299561 561.573303,456.224396 
	C562.914795,455.781830 563.706787,455.603333 564.427673,455.270721 
	C586.630066,445.027191 608.796692,434.705078 631.056580,424.588287 
	C634.006836,423.247437 634.234680,421.296326 634.231201,418.659088 
	C634.190613,387.699707 634.210266,356.740265 634.188171,325.780823 
	C634.187195,324.406830 633.938171,323.032990 633.756836,321.166473 
	C631.044739,322.339142 628.938354,323.249908 626.137878,324.524414 
M594.977783,289.548950 
	C580.325806,282.792603 565.729126,275.910492 550.961792,269.416534 
	C548.765808,268.450836 545.389282,268.475281 543.196960,269.460846 
	C523.778198,278.190369 504.501343,287.235504 485.190704,296.204987 
	C483.758820,296.870117 482.390228,297.671448 480.522675,298.657288 
	C481.552307,299.353607 482.029358,299.780243 482.584930,300.036957 
	C503.271606,309.594147 523.937866,319.197113 544.713135,328.557953 
	C546.309387,329.277161 548.915405,328.786072 550.657898,327.992157 
	C570.335571,319.026978 589.938416,309.897339 609.552368,300.792419 
	C610.832520,300.198151 612.038696,299.444611 614.046692,298.344818 
	C607.397461,295.269318 601.535034,292.557739 594.977783,289.548950 
M390.306427,576.193726 
	C376.842194,570.008362 363.345001,563.893005 349.940796,557.580078 
	C347.170135,556.275208 344.948700,556.043579 342.031738,557.412170 
	C322.589355,566.533997 303.039551,575.426697 283.533325,584.412598 
	C282.246338,585.005493 281.030518,585.752869 279.359955,586.656433 
	C280.320129,587.338318 280.785797,587.789612 281.341400,588.046204 
	C302.048187,597.606628 322.740326,607.200012 343.525604,616.587036 
	C345.018890,617.261475 347.429657,616.915283 349.028290,616.191711 
	C369.047485,607.129944 388.998444,597.917358 408.953583,588.714600 
	C410.023041,588.221436 410.974121,587.471619 412.574402,586.469116 
	C404.866425,582.925659 397.921814,579.733215 390.306427,576.193726 
M713.733887,607.731689 
	C719.939270,610.572144 726.070068,613.598267 732.396179,616.138123 
	C734.259521,616.886230 736.991211,616.961182 738.789612,616.153076 
	C758.830383,607.147461 778.769226,597.914612 798.721741,588.713135 
	C799.791748,588.219727 800.738586,587.459290 802.336853,586.446655 
	C780.269104,576.300232 758.981079,566.449280 737.594177,556.817749 
	C736.132141,556.159363 733.726562,556.699097 732.101685,557.435669 
	C712.543762,566.301086 693.047241,575.301941 673.546753,584.293518 
	C672.155884,584.934875 670.858643,585.779480 668.733582,586.968262 
	C684.110107,594.056458 698.583679,600.728394 713.733887,607.731689 
z"/>
<path fill="#464B75" opacity="1.000000" stroke="none" 
	d="
M715.035767,531.424194 
	C713.692505,533.123840 712.566895,534.836731 710.985901,535.576965 
	C684.438232,548.006714 657.947144,560.569580 631.171326,572.491760 
	C623.365295,575.967468 620.573059,581.026794 620.632202,589.110596 
	C620.828613,615.942200 620.704773,642.776123 620.704956,669.609192 
	C620.705078,685.775696 620.847900,701.943848 620.648376,718.107910 
	C620.550354,726.045715 623.580627,731.269104 631.125061,734.387451 
	C640.794006,738.383850 650.180359,743.063904 660.449097,747.800293 
	C658.796753,748.973816 657.742188,749.854126 656.571655,750.535217 
	C621.580261,770.892700 586.563782,791.207275 551.604248,811.619385 
	C549.053955,813.108337 547.111938,813.444458 544.362427,811.860535 
	C506.831543,790.239868 469.224640,768.751221 431.643555,747.217651 
	C430.692505,746.672791 429.821625,745.988037 428.133423,744.836548 
	C435.851715,741.260193 442.762054,737.687073 449.954742,734.823242 
	C458.195099,731.542175 461.500427,725.927490 461.452759,717.085205 
	C461.224426,674.753540 461.215088,632.419250 461.459564,590.087769 
	C461.511444,581.105042 458.307709,575.702942 449.842468,572.032715 
	C427.384521,562.295776 405.282288,551.740967 382.959564,541.686890 
	C379.619904,540.182678 378.299530,538.400269 378.334106,534.619446 
	C378.527618,513.454773 378.511322,492.286774 378.342773,471.121674 
	C378.315063,467.636932 379.485626,465.749817 382.451508,464.061676 
	C397.508606,455.491364 412.443481,446.706390 427.430817,438.013275 
	C428.831329,437.200958 430.299286,436.504944 432.391968,435.412415 
	C434.008148,442.929199 439.973114,445.267853 445.779114,447.921112 
	C476.682800,462.043671 507.598419,476.141815 538.400696,490.483063 
	C544.492920,493.319519 549.922424,493.412445 556.028992,490.568909 
	C587.737122,475.803833 619.628174,461.429352 651.260254,446.505127 
	C655.895752,444.318115 659.485229,439.914154 664.285583,435.933136 
	C679.558044,444.678528 696.351929,454.210785 712.996033,463.997925 
	C714.229736,464.723389 714.947754,467.276764 714.958557,468.986389 
	C715.089661,489.651855 715.042419,510.318481 715.035767,531.424194 
z"/>
<path fill="#474C75" opacity="1.000000" stroke="none" 
	d="
M788.320679,727.289551 
	C775.607910,733.135376 763.232483,738.811523 750.234680,744.773132 
	C750.091431,742.584900 749.901001,741.024536 749.900146,739.464050 
	C749.882568,708.802368 749.951294,678.140320 749.801697,647.479370 
	C749.783875,643.832947 750.718323,641.929626 754.205383,640.364502 
	C775.323975,630.886108 796.311707,621.116333 817.349670,611.457947 
	C818.817871,610.783936 820.338257,610.223572 822.438354,609.362854 
	C822.570190,611.503479 822.750305,613.072693 822.751160,614.642029 
	C822.767700,645.303711 822.687988,675.965881 822.858826,706.626587 
	C822.880005,710.434692 821.555481,712.206787 818.207031,713.658936 
	C808.278748,717.964722 798.497009,722.608398 788.320679,727.289551 
z"/>
<path fill="#464B75" opacity="1.000000" stroke="none" 
	d="
M396.002747,625.968262 
	C408.254791,620.365295 420.158600,614.907898 432.663574,609.174866 
	C432.811371,610.813538 432.965179,611.725647 432.965546,612.637695 
	C432.978302,644.283386 432.958252,675.929077 433.011963,707.574646 
	C433.016235,710.094727 432.662048,711.756226 429.946625,712.983154 
	C407.650146,723.057678 385.444489,733.333191 363.205048,743.534180 
	C362.475342,743.868958 361.679810,744.060364 360.336639,744.513855 
	C360.215942,742.617371 360.032257,741.068909 360.031403,739.520325 
	C360.014404,708.707458 360.090637,677.894165 359.922241,647.082214 
	C359.902435,643.454834 361.181183,641.833862 364.324432,640.452393 
	C374.837646,635.831848 385.221283,630.916382 396.002747,625.968262 
z"/>
<path fill="#474C75" opacity="1.000000" stroke="none" 
	d="
M626.484924,324.342529 
	C628.938354,323.249908 631.044739,322.339142 633.756836,321.166473 
	C633.938171,323.032990 634.187195,324.406830 634.188171,325.780823 
	C634.210266,356.740265 634.190613,387.699707 634.231201,418.659088 
	C634.234680,421.296326 634.006836,423.247437 631.056580,424.588287 
	C608.796692,434.705078 586.630066,445.027191 564.427673,455.270721 
	C563.706787,455.603333 562.914795,455.781830 561.573303,456.224396 
	C561.450867,454.299561 561.265625,452.736481 561.264771,451.173279 
	C561.248108,420.546753 561.307190,389.919952 561.178162,359.293976 
	C561.163513,355.829803 562.127625,353.990417 565.402283,352.508270 
	C585.709229,343.316772 605.905151,333.879852 626.484924,324.342529 
z"/>
<path fill="#484D76" opacity="1.000000" stroke="none" 
	d="
M595.325195,289.697571 
	C601.535034,292.557739 607.397461,295.269318 614.046692,298.344818 
	C612.038696,299.444611 610.832520,300.198151 609.552368,300.792419 
	C589.938416,309.897339 570.335571,319.026978 550.657898,327.992157 
	C548.915405,328.786072 546.309387,329.277161 544.713135,328.557953 
	C523.937866,319.197113 503.271606,309.594147 482.584930,300.036957 
	C482.029358,299.780243 481.552307,299.353607 480.522675,298.657288 
	C482.390228,297.671448 483.758820,296.870117 485.190704,296.204987 
	C504.501343,287.235504 523.778198,278.190369 543.196960,269.460846 
	C545.389282,268.475281 548.765808,268.450836 550.961792,269.416534 
	C565.729126,275.910492 580.325806,282.792603 595.325195,289.697571 
z"/>
<path fill="#484D76" opacity="1.000000" stroke="none" 
	d="
M390.641815,576.367188 
	C397.921814,579.733215 404.866425,582.925659 412.574402,586.469116 
	C410.974121,587.471619 410.023041,588.221436 408.953583,588.714600 
	C388.998444,597.917358 369.047485,607.129944 349.028290,616.191711 
	C347.429657,616.915283 345.018890,617.261475 343.525604,616.587036 
	C322.740326,607.200012 302.048187,597.606628 281.341400,588.046204 
	C280.785797,587.789612 280.320129,587.338318 279.359955,586.656433 
	C281.030518,585.752869 282.246338,585.005493 283.533325,584.412598 
	C303.039551,575.426697 322.589355,566.533997 342.031738,557.412170 
	C344.948700,556.043579 347.170135,556.275208 349.940796,557.580078 
	C363.345001,563.893005 376.842194,570.008362 390.641815,576.367188 
z"/>
<path fill="#484D76" opacity="1.000000" stroke="none" 
	d="
M713.395508,607.566040 
	C698.583679,600.728394 684.110107,594.056458 668.733582,586.968262 
	C670.858643,585.779480 672.155884,584.934875 673.546753,584.293518 
	C693.047241,575.301941 712.543762,566.301086 732.101685,557.435669 
	C733.726562,556.699097 736.132141,556.159363 737.594177,556.817749 
	C758.981079,566.449280 780.269104,576.300232 802.336853,586.446655 
	C800.738586,587.459290 799.791748,588.219727 798.721741,588.713135 
	C778.769226,597.914612 758.830383,607.147461 738.789612,616.153076 
	C736.991211,616.961182 734.259521,616.886230 732.396179,616.138123 
	C726.070068,613.598267 719.939270,610.572144 713.395508,607.566040 
z"/>
</svg>