<svg xmlns="http://www.w3.org/2000/svg" viewBox="0 0 119.47 97.257">
  <defs>
    <style>
      .cls-1, .cls-3 {
        fill: #bdc5d1;
      }

      .cls-1 {
        opacity: 0.4;
      }

      .cls-2, .cls-7 {
        fill: #fff;
      }

      .cls-2, .cls-4 {
        stroke: #bdc5d1;
      }

      .cls-2, .cls-4, .cls-5 {
        stroke-linecap: round;
        stroke-linejoin: round;
        stroke-miterlimit: 10;
        stroke-width: 3px;
      }

      .cls-3 {
        opacity: 0.5;
      }

      .cls-4, .cls-5 {
        fill: none;
      }

      .cls-5 {
        stroke: #3498db;
      }

      .cls-6 {
        fill: #3498db;
      }
    </style>
  </defs>
  <g id="icon-35" transform="translate(-0.2 -13.553)">
    <path id="Path_1" data-name="Path 1" class="cls-1" d="M112.9,83a47.85,47.85,0,1,0-85.3,0,4.114,4.114,0,0,0,3.7,2.3h78A4.272,4.272,0,0,0,112.9,83Z"/>
    <path id="Path_2" data-name="Path 2" class="cls-2" d="M111.9,106.6a57.443,57.443,0,0,0,6.2-29A58.23,58.23,0,1,0,8,106.6a5.024,5.024,0,0,0,4.5,2.7h94.9A4.747,4.747,0,0,0,111.9,106.6Z"/>
    <circle id="Ellipse_1" data-name="Ellipse 1" class="cls-3" cx="12.7" cy="12.7" r="12.7" transform="translate(51.9 73.8)"/>
    <line id="Line_1" data-name="Line 1" class="cls-4" x2="1.9" y2="4.5" transform="translate(39.7 31.9)"/>
    <line id="Line_2" data-name="Line 2" class="cls-4" x1="1.8" y2="4.6" transform="translate(80 32.7)"/>
    <line id="Line_3" data-name="Line 3" class="cls-5" x1="4.5" y2="2" transform="translate(103.2 58.6)"/>
    <line id="Line_4" data-name="Line 4" class="cls-4" x1="4.6" y1="1.8" transform="translate(106.2 92.6)"/>
    <line id="Line_5" data-name="Line 5" class="cls-4" x1="4.6" y2="1.8" transform="translate(10 93.5)"/>
    <line id="Line_6" data-name="Line 6" class="cls-4" x2="4.6" y2="1.8" transform="translate(12.6 57.1)"/>
    <path id="Path_3" data-name="Path 3" class="cls-4" d="M70.6,79,83.3,66.2a1.063,1.063,0,0,0,.1-1.4h0a1.094,1.094,0,0,0-1.3-.4L65.4,71"/>
    <circle id="Ellipse_2" data-name="Ellipse 2" class="cls-6" cx="12.7" cy="12.7" r="12.7" transform="translate(47.2 67.6)"/>
    <circle id="Ellipse_3" data-name="Ellipse 3" class="cls-7" cx="4.1" cy="4.1" r="4.1" transform="translate(55.8 76.2)"/>
    <path id="Path_4" data-name="Path 4" class="cls-4" d="M22,94.4a41.1,41.1,0,0,1-2.8-14.9A40.7,40.7,0,1,1,98,93.9"/>
    <path id="Path_5" data-name="Path 5" class="cls-5" d="M48.5,49.4A29.174,29.174,0,0,1,51.6,48"/>
    <path id="Path_6" data-name="Path 6" class="cls-5" d="M30.2,68.5A34.028,34.028,0,0,1,41.5,53.9"/>
  </g>
</svg>
